<svg xmlns="http://www.w3.org/2000/svg" viewBox="0 0 500 352.73">

    <style>
        path {
        fill: #212121;
        }

        @media (prefers-color-scheme: dark){
        path {
        fill: white;
        }
        }
    </style>

    <path d="M289.3,58c-100.05,263.77-124.58,328.93-130.57,345a3.86,3.86,0,0,0,3.69,5.2h70.29a3.91,3.91,0,0,0,3.68-2.57l87.56-240a3.91,3.91,0,0,1,7.34,0L368,265.23a3.91,3.91,0,0,1-3.23,5.24l-27.54,3.13a3.9,3.9,0,0,0-3.26,2.62l-22.91,67.31a3.91,3.91,0,0,0,3.59,5.17l81.17,2.17a3.9,3.9,0,0,1,3.49,2.36l22.62,52.54a3.91,3.91,0,0,0,3.59,2.37H500v-7.95L371.46,57.94a3.91,3.91,0,0,0-3.66-2.53H293A4,4,0,0,0,289.3,58Z" transform="translate(0 -55.41)" />
    <path d="M128.36,336.59l21.85-64.19a4.2,4.2,0,0,0-4.49-5.52L3.7,284.17a4.2,4.2,0,0,0-1,8.09l120.17,46.89A4.21,4.21,0,0,0,128.36,336.59Z" transform="translate(0 -55.41)" />
    <path d="M172.52,228.75l11.34-33.31a4.45,4.45,0,0,0-4.75-5.85l-73.72,9a4.45,4.45,0,0,0-1.08,8.57l62.38,24.34A4.46,4.46,0,0,0,172.52,228.75Z" transform="translate(0 -55.41)" />
</svg>
